ffmpeg started on 2016-12-07 at 18:27:22
Report written to "Output/x264/results/ffmpeg/crowd_run_2160p50slower500k.log"
Command line:
Tools/ffmpeg/ffmpeg -benchmark -y -i Input/y4m/crowd_run_2160p50.y4m -c:v libx264 -preset slower -b:v 500k -an Output/x264/encoded/crowd_run_2160p50slower500k.mkv
ffmpeg version N-82227-gdb23fde Copyright (c) 2000-2016 the FFmpeg developers
  built with gcc 5.4.0 (Ubuntu 5.4.0-6ubuntu1~16.04.2) 20160609
  configuration: --prefix=/home/jaroslav/ffmpeg_build --pkg-config-flags=--static --extra-cflags=-I/home/jaroslav/ffmpeg_build/include --extra-ldflags=-L/home/jaroslav/ffmpeg_build/lib --bindir=/home/jaroslav/bin --enable-gpl --enable-libass --enable-libfdk-aac --enable-libfreetype --enable-libmp3lame --enable-libopus --enable-libtheora --enable-libvorbis --enable-libvpx --enable-libx264 --enable-libx265 --enable-nvenc --enable-libmfx --enable-libxvid --enable-libgsm --enable-libopencore-amrnb --enable-version3 --enable-nonfree
  libavutil      55. 35.100 / 55. 35.100
  libavcodec     57. 66.101 / 57. 66.101
  libavformat    57. 57.100 / 57. 57.100
  libavdevice    57.  2.100 / 57.  2.100
  libavfilter     6. 66.100 /  6. 66.100
  libswscale      4.  3.100 /  4.  3.100
  libswresample   2.  4.100 /  2.  4.100
  libpostproc    54.  2.100 / 54.  2.100
Input #0, yuv4mpegpipe, from 'Input/y4m/crowd_run_2160p50.y4m':
  Duration: 00:00:10.00, start: 0.000000, bitrate: 4976642 kb/s
    Stream #0:0: Video: rawvideo (I420 / 0x30323449), yuv420p(progressive), 3840x2160, SAR 1:1 DAR 16:9, 50 fps, 50 tbr, 50 tbn, 50 tbc
[libx264 @ 0x36031c0] using SAR=1/1
[libx264 @ 0x36031c0] DPB size (8 frames, 259200 mbs) > level limit (5 frames, 184320 mbs)
[libx264 @ 0x36031c0] using cpu capabilities: MMX2 SSE2Fast SSSE3 SSE4.2 AVX FMA3 AVX2 LZCNT BMI2
[libx264 @ 0x36031c0] profile High, level 5.2
[libx264 @ 0x36031c0] 264 - core 148 - H.264/MPEG-4 AVC codec - Copyleft 2003-2016 - http://www.videolan.org/x264.html - options: cabac=1 ref=8 deblock=1:0:0 analyse=0x3:0x133 me=umh subme=9 psy=1 psy_rd=1.00:0.00 mixed_ref=1 me_range=16 chroma_me=1 trellis=2 8x8dct=1 cqm=0 deadzone=21,11 fast_pskip=1 chroma_qp_offset=-2 threads=6 lookahead_threads=1 sliced_threads=0 nr=0 decimate=1 interlaced=0 bluray_compat=0 constrained_intra=0 bframes=3 b_pyramid=2 b_adapt=2 b_bias=0 direct=3 weightb=1 open_gop=0 weightp=2 keyint=250 keyint_min=25 scenecut=40 intra_refresh=0 rc_lookahead=60 rc=abr mbtree=1 bitrate=500 ratetol=1.0 qcomp=0.60 qpmin=0 qpmax=69 qpstep=4 ip_ratio=1.40 aq=1:1.00
Output #0, matroska, to 'Output/x264/encoded/crowd_run_2160p50slower500k.mkv':
  Metadata:
    encoder         : Lavf57.57.100
    Stream #0:0: Video: h264 (libx264) (H264 / 0x34363248), yuv420p, 3840x2160 [SAR 1:1 DAR 16:9], q=-1--1, 500 kb/s, 50 fps, 1k tbn, 50 tbc
    Metadata:
      encoder         : Lavc57.66.101 libx264
    Side data:
      cpb: bitrate max/min/avg: 0/0/500000 buffer size: 0 vbv_delay: -1
Stream mapping:
  Stream #0:0 -> #0:0 (rawvideo (native) -> h264 (libx264))
Press [q] to stop, [?] for help
frame=   19 fps=0.0 q=0.0 size=       0kB time=00:00:00.00 bitrate=N/A speed=   0x    frame=   32 fps= 31 q=0.0 size=       0kB time=00:00:00.00 bitrate=N/A speed=   0x    frame=   45 fps= 28 q=0.0 size=       0kB time=00:00:00.00 bitrate=N/A speed=   0x    frame=   56 fps= 26 q=0.0 size=       0kB time=00:00:00.00 bitrate=N/A speed=   0x    frame=   67 fps= 12 q=0.0 size=       0kB time=00:00:00.00 bitrate=N/A speed=   0x    frame=   74 fps= 11 q=63.0 size=       1kB time=00:00:00.02 bitrate= 280.4kbits/s speed=0.00321x    frame=   79 fps= 11 q=69.0 size=       1kB time=00:00:00.12 bitrate=  48.7kbits/s speed=0.017x    frame=   82 fps= 10 q=69.0 size=       1kB time=00:00:00.18 bitrate=  32.5kbits/s speed=0.023x    frame=   86 fps= 10 q=69.0 size=       1kB time=00:00:00.26 bitrate=  22.6kbits/s speed=0.0305x    frame=   90 fps=9.8 q=69.0 size=       1kB time=00:00:00.34 bitrate=  17.3kbits/s speed=0.037x    frame=   95 fps=9.8 q=69.0 size=       1kB time=00:00:00.44 bitrate=  13.4kbits/s speed=0.0453x    frame=   98 fps=9.6 q=69.0 size=       1kB time=00:00:00.50 bitrate=  11.8kbits/s speed=0.0489x    frame=  102 fps=9.5 q=69.0 size=       1kB time=00:00:00.58 bitrate=  10.1kbits/s speed=0.054x    frame=  107 fps=9.5 q=69.0 size=       1kB time=00:00:00.68 bitrate=   8.6kbits/s speed=0.0605x    frame=  112 fps=9.5 q=69.0 size=       1kB time=00:00:00.78 bitrate=   7.5kbits/s speed=0.0659x    frame=  117 fps=9.2 q=69.0 size=       1kB time=00:00:00.88 bitrate=   6.7kbits/s speed=0.0696x    frame=  121 fps=9.2 q=69.0 size=       1kB time=00:00:00.96 bitrate=   6.1kbits/s speed=0.073x    frame=  126 fps=9.0 q=69.0 size=       1kB time=00:00:01.06 bitrate=   5.5kbits/s speed=0.0758x    frame=  130 fps=8.9 q=69.0 size=       1kB time=00:00:01.14 bitrate=   5.2kbits/s speed=0.0785x    frame=  135 fps=9.0 q=69.0 size=       1kB time=00:00:01.24 bitrate=   4.7kbits/s speed=0.0825x    frame=  140 fps=9.0 q=69.0 size=       1kB time=00:00:01.34 bitrate=   4.4kbits/s speed=0.0861x    frame=  145 fps=9.0 q=69.0 size=       1kB time=00:00:01.44 bitrate=   4.1kbits/s speed=0.0895x    frame=  149 fps=9.0 q=69.0 size=       1kB time=00:00:01.52 bitrate=   3.9kbits/s speed=0.0915x    frame=  154 fps=8.8 q=69.0 size=       1kB time=00:00:01.62 bitrate=   3.6kbits/s speed=0.0928x    frame=  160 fps=8.9 q=69.0 size=       1kB time=00:00:01.74 bitrate=   3.4kbits/s speed=0.0968x    frame=  163 fps=8.8 q=69.0 size=       1kB time=00:00:01.80 bitrate=   3.3kbits/s speed=0.0973x    frame=  169 fps=8.9 q=69.0 size=       1kB time=00:00:01.92 bitrate=   3.1kbits/s speed=0.101x    frame=  174 fps=8.8 q=69.0 size=       1kB time=00:00:02.02 bitrate=   2.9kbits/s speed=0.102x    frame=  177 fps=8.7 q=69.0 size=       1kB time=00:00:02.08 bitrate=   2.8kbits/s speed=0.102x    frame=  182 fps=8.7 q=69.0 size=       1kB time=00:00:02.18 bitrate=   2.7kbits/s speed=0.104x    frame=  186 fps=8.7 q=69.0 size=       1kB time=00:00:02.26 bitrate=   2.6kbits/s speed=0.105x    frame=  191 fps=8.6 q=69.0 size=       1kB time=00:00:02.36 bitrate=   2.5kbits/s speed=0.106x    frame=  196 fps=8.6 q=69.0 size=       1kB time=00:00:02.46 bitrate=   2.4kbits/s speed=0.108x    frame=  200 fps=8.6 q=69.0 size=       1kB time=00:00:02.54 bitrate=   2.3kbits/s speed=0.109x    frame=  205 fps=8.6 q=69.0 size=       1kB time=00:00:02.64 bitrate=   2.2kbits/s speed=0.111x    frame=  210 fps=8.5 q=69.0 size=       1kB time=00:00:02.74 bitrate=   2.1kbits/s speed=0.112x    frame=  215 fps=8.6 q=69.0 size=       1kB time=00:00:02.84 bitrate=   2.1kbits/s speed=0.113x    frame=  220 fps=8.6 q=69.0 size=       1kB time=00:00:02.94 bitrate=   2.0kbits/s speed=0.115x    frame=  225 fps=8.5 q=69.0 size=       1kB time=00:00:03.04 bitrate=   1.9kbits/s speed=0.115x    frame=  231 fps=8.5 q=69.0 size=       1kB time=00:00:03.16 bitrate=   1.9kbits/s speed=0.117x    frame=  236 fps=8.5 q=69.0 size=       1kB time=00:00:03.26 bitrate=   1.8kbits/s speed=0.117x    frame=  241 fps=8.5 q=69.0 size=       1kB time=00:00:03.36 bitrate=   1.8kbits/s speed=0.118x    frame=  246 fps=8.5 q=69.0 size=       1kB time=00:00:03.46 bitrate=   1.7kbits/s speed=0.12x    frame=  250 fps=8.5 q=69.0 size=       1kB time=00:00:03.54 bitrate=   1.7kbits/s speed=0.12x    frame=  255 fps=8.4 q=69.0 size=       1kB time=00:00:03.64 bitrate=   1.6kbits/s speed=0.12x    frame=  262 fps=8.4 q=69.0 size=       1kB time=00:00:03.78 bitrate=   1.6kbits/s speed=0.121x    frame=  269 fps=8.5 q=69.0 size=       1kB time=00:00:03.92 bitrate=   1.5kbits/s speed=0.123x    frame=  274 fps=8.4 q=69.0 size=       1kB time=00:00:04.02 bitrate=   1.5kbits/s speed=0.123x    frame=  277 fps=8.4 q=69.0 size=       1kB time=00:00:04.08 bitrate=   1.4kbits/s speed=0.123x    frame=  282 fps=8.4 q=69.0 size=       1kB time=00:00:04.18 bitrate=   1.4kbits/s speed=0.124x    frame=  285 fps=8.3 q=69.0 size=       1kB time=00:00:04.24 bitrate=   1.4kbits/s speed=0.124x    frame=  291 fps=8.4 q=69.0 size=       1kB time=00:00:04.36 bitrate=   1.4kbits/s speed=0.126x    frame=  293 fps=8.3 q=69.0 size=       1kB time=00:00:04.40 bitrate=   1.3kbits/s speed=0.125x    frame=  299 fps=8.4 q=69.0 size=       1kB time=00:00:04.52 bitrate=   1.3kbits/s speed=0.126x    frame=  304 fps=8.3 q=69.0 size=       1kB time=00:00:04.62 bitrate=   1.3kbits/s speed=0.126x    frame=  308 fps=8.3 q=69.0 size=       1kB time=00:00:04.70 bitrate=   1.3kbits/s speed=0.126x    frame=  312 fps=8.3 q=69.0 size=       1kB time=00:00:04.78 bitrate=   1.2kbits/s speed=0.127x    frame=  317 fps=8.3 q=69.0 size=       1kB time=00:00:04.88 bitrate=   1.2kbits/s speed=0.128x    frame=  321 fps=8.3 q=69.0 size=     739kB time=00:00:04.96 bitrate=1220.9kbits/s speed=0.128x    frame=  327 fps=8.3 q=69.0 size=     739kB time=00:00:05.08 bitrate=1192.0kbits/s speed=0.129x    frame=  332 fps=8.3 q=69.0 size=     739kB time=00:00:05.18 bitrate=1169.0kbits/s speed=0.129x    frame=  337 fps=8.2 q=69.0 size=     739kB time=00:00:05.28 bitrate=1146.9kbits/s speed=0.129x    frame=  342 fps=8.2 q=69.0 size=     739kB time=00:00:05.38 bitrate=1125.6kbits/s speed=0.129x    frame=  344 fps=8.2 q=69.0 size=     739kB time=00:00:05.42 bitrate=1117.3kbits/s speed=0.129x    frame=  348 fps=8.2 q=69.0 size=     739kB time=00:00:05.50 bitrate=1101.0kbits/s speed=0.129x    frame=  352 fps=8.1 q=69.0 size=     739kB time=00:00:05.58 bitrate=1085.2kbits/s speed=0.129x    frame=  356 fps=8.1 q=69.0 size=     739kB time=00:00:05.66 bitrate=1069.9kbits/s speed=0.129x    frame=  360 fps=8.1 q=69.0 size=     739kB time=00:00:05.74 bitrate=1055.0kbits/s speed=0.13x    frame=  364 fps=8.1 q=69.0 size=     739kB time=00:00:05.82 bitrate=1040.5kbits/s speed=0.13x    frame=  368 fps=8.1 q=69.0 size=     739kB time=00:00:05.90 bitrate=1026.4kbits/s speed=0.13x    frame=  372 fps=8.1 q=69.0 size=     739kB time=00:00:05.98 bitrate=1012.6kbits/s speed=0.13x    frame=  378 fps=8.1 q=69.0 size=     739kB time=00:00:06.10 bitrate= 992.7kbits/s speed=0.131x    frame=  380 fps=8.1 q=69.0 size=     739kB time=00:00:06.14 bitrate= 986.3kbits/s speed=0.13x    frame=  385 fps=8.0 q=69.0 size=     739kB time=00:00:06.24 bitrate= 970.5kbits/s speed=0.13x    frame=  390 fps=8.0 q=69.0 size=     739kB time=00:00:06.34 bitrate= 955.2kbits/s speed=0.13x    frame=  393 fps=8.0 q=69.0 size=     739kB time=00:00:06.40 bitrate= 946.2kbits/s speed=0.13x    frame=  399 fps=8.0 q=69.0 size=     739kB time=00:00:06.52 bitrate= 928.8kbits/s speed=0.131x    frame=  402 fps=7.9 q=69.0 size=     739kB time=00:00:06.58 bitrate= 920.3kbits/s speed=0.13x    frame=  407 fps=7.9 q=69.0 size=     739kB time=00:00:06.68 bitrate= 906.5kbits/s speed=0.13x    frame=  410 fps=7.9 q=69.0 size=     739kB time=00:00:06.74 bitrate= 898.5kbits/s speed=0.13x    frame=  414 fps=7.9 q=69.0 size=     739kB time=00:00:06.82 bitrate= 887.9kbits/s speed=0.13x    frame=  418 fps=7.9 q=69.0 size=     739kB time=00:00:06.90 bitrate= 877.6kbits/s speed=0.13x    frame=  423 fps=7.9 q=69.0 size=     739kB time=00:00:07.00 bitrate= 865.1kbits/s speed=0.131x    frame=  427 fps=7.9 q=69.0 size=     739kB time=00:00:07.08 bitrate= 855.3kbits/s speed=0.131x    frame=  431 fps=7.9 q=69.0 size=     739kB time=00:00:07.16 bitrate= 845.8kbits/s speed=0.131x    frame=  435 fps=7.9 q=69.0 size=     739kB time=00:00:07.24 bitrate= 836.4kbits/s speed=0.131x    frame=  441 fps=7.9 q=69.0 size=     739kB time=00:00:07.36 bitrate= 822.8kbits/s speed=0.132x    frame=  443 fps=7.8 q=69.0 size=     739kB time=00:00:07.40 bitrate= 818.4kbits/s speed=0.131x    frame=  447 fps=7.8 q=69.0 size=     739kB time=00:00:07.48 bitrate= 809.6kbits/s speed=0.131x    frame=  450 fps=7.8 q=69.0 size=     739kB time=00:00:07.54 bitrate= 803.2kbits/s speed=0.131x    frame=  454 fps=7.8 q=69.0 size=     739kB time=00:00:07.62 bitrate= 794.7kbits/s speed=0.131x    frame=  458 fps=7.8 q=69.0 size=     739kB time=00:00:07.70 bitrate= 786.5kbits/s speed=0.131x    frame=  462 fps=7.8 q=69.0 size=     739kB time=00:00:07.78 bitrate= 778.4kbits/s speed=0.131x    frame=  466 fps=7.8 q=69.0 size=     739kB time=00:00:07.86 bitrate= 770.5kbits/s speed=0.131x    frame=  470 fps=7.8 q=69.0 size=     739kB time=00:00:07.94 bitrate= 762.7kbits/s speed=0.131x    frame=  474 fps=7.8 q=69.0 size=     739kB time=00:00:08.02 bitrate= 755.1kbits/s speed=0.131x    frame=  478 fps=7.7 q=69.0 size=     739kB time=00:00:08.10 bitrate= 747.6kbits/s speed=0.131x    frame=  484 fps=7.8 q=69.0 size=     739kB time=00:00:08.22 bitrate= 736.7kbits/s speed=0.132x    frame=  485 fps=7.7 q=69.0 size=     739kB time=00:00:08.24 bitrate= 734.9kbits/s speed=0.131x    frame=  491 fps=7.7 q=69.0 size=     739kB time=00:00:08.36 bitrate= 724.4kbits/s speed=0.132x    frame=  492 fps=7.7 q=69.0 size=     739kB time=00:00:08.38 bitrate= 722.7kbits/s speed=0.131x    frame=  498 fps=7.7 q=69.0 size=     739kB time=00:00:08.50 bitrate= 712.5kbits/s speed=0.132x    frame=  500 fps=7.7 q=69.0 size=     739kB time=00:00:08.54 bitrate= 709.1kbits/s speed=0.131x    frame=  500 fps=6.7 q=-1.0 Lsize=    1447kB time=00:00:09.94 bitrate=1192.8kbits/s speed=0.133x    
video:1443kB audio:0kB subtitle:0kB other streams:0kB global headers:0kB muxing overhead: 0.292524%
bench: utime=253.716s
bench: maxrss=2527040kB
[libx264 @ 0x36031c0] frame I:2     Avg QP:51.00  size: 15042
[libx264 @ 0x36031c0] frame P:134   Avg QP:51.00  size: 10037
[libx264 @ 0x36031c0] frame B:364   Avg QP:51.00  size:   280
[libx264 @ 0x36031c0] consecutive B-frames:  0.4%  2.8% 14.4% 82.4%
[libx264 @ 0x36031c0] mb I  I16..4: 59.0% 41.0%  0.0%
[libx264 @ 0x36031c0] mb P  I16..4: 19.6%  0.6%  0.0%  P16..4: 13.4%  0.0%  0.0%  0.0%  0.0%    skip:66.4%
[libx264 @ 0x36031c0] mb B  I16..4:  0.0%  0.0%  0.0%  B16..8:  0.2%  0.0%  0.0%  direct: 0.0%  skip:99.8%  L0: 9.4% L1:90.4% BI: 0.1%
[libx264 @ 0x36031c0] final ratefactor: 68.39
[libx264 @ 0x36031c0] 8x8 transform intra:5.6% inter:99.2%
[libx264 @ 0x36031c0] direct mvs  spatial:98.9% temporal:1.1%
[libx264 @ 0x36031c0] coded y,uvDC,uvAC intra: 0.1% 1.4% 0.0% inter: 0.0% 0.0% 0.0%
[libx264 @ 0x36031c0] i16 v,h,dc,p: 95%  4%  0%  0%
[libx264 @ 0x36031c0] i8 v,h,dc,ddl,ddr,vr,hd,vl,hu:  1%  1% 94%  1%  1%  1%  1%  1%  1%
[libx264 @ 0x36031c0] i8c dc,h,v,p: 100%  0%  0%  0%
[libx264 @ 0x36031c0] Weighted P-Frames: Y:0.7% UV:0.0%
[libx264 @ 0x36031c0] ref P L0: 43.3%  1.0% 16.2%  9.2%  6.6%  9.5%  8.8%  5.4%  0.0%
[libx264 @ 0x36031c0] ref B L0: 91.6%  7.2%  0.6%  0.1%  0.2%  0.3%  0.0%
[libx264 @ 0x36031c0] ref B L1: 97.4%  2.6%
[libx264 @ 0x36031c0] kb/s:1181.71
